<svg id="Layer_1" data-name="Layer 1" xmlns="http://www.w3.org/2000/svg" xmlns:xlink="http://www.w3.org/1999/xlink" viewBox="0 0 53.03 53.03"><defs><style>.cls-1{fill:#fff;}.cls-2{mask:url(#mask);}.cls-3{fill:#989898;}</style><mask id="mask" x="13.41" y="9.33" width="24.47" height="35.05" maskUnits="userSpaceOnUse"><g id="mask-2"><polygon id="path-1" class="cls-1" points="13.41 9.33 37.89 9.33 37.89 44.38 13.41 44.38 13.41 9.33"/></g></mask></defs><title>logo</title><path class="cls-1" d="M26.52.62A25.9,25.9,0,1,1,.62,26.52,25.93,25.93,0,0,1,26.52.62m0-.62A26.52,26.52,0,1,0,53,26.52,26.52,26.52,0,0,0,26.52,0Z"/><g id="Artboard"><g id="Page-1"><g id="Group-3"><g class="cls-2"><path id="Fill-1" class="cls-3" d="M24.19,41.87a8.6,8.6,0,0,0,1.36,1.2,6.33,6.33,0,0,0,.77.5,4.73,4.73,0,0,0,.47.2c.16.07.32.15.48.21a3.76,3.76,0,0,0,.48.13l.49.12a5.62,5.62,0,0,0,1,.14,4,4,0,0,0,.49,0l.51,0a5.79,5.79,0,0,0,1-.11l.51-.14L32,44a.61.61,0,0,0,.13,0l.09-.06a.47.47,0,0,1,.19-.06.8.8,0,0,0,.25-.11c.16-.07.32-.13.47-.21A9.23,9.23,0,0,0,34,43a1.13,1.13,0,0,0,.21-.15.57.57,0,0,1,.14-.13,2,2,0,0,0,.38-.32l.19-.18.07-.08a.24.24,0,0,1,.06-.08s.1-.08.14-.13l.17-.21a8.35,8.35,0,0,0,.6-.83c.08-.15.17-.3.26-.45a1.27,1.27,0,0,0,.06-.18.56.56,0,0,1,0-.08.29.29,0,0,0,.07-.12l.18-.47.09-.23c0-.07,0-.15,0-.22s.06-.12.08-.19,0-.17.05-.26l0-.23a1.32,1.32,0,0,0,0-.26.41.41,0,0,1,0-.19l0-.08a.34.34,0,0,0,0-.14c0-.15,0-.31,0-.47a1.33,1.33,0,0,0-.35-.8,1.84,1.84,0,0,0-.64-.46,1.12,1.12,0,0,0-.48-.07,2,2,0,0,0-.49.07l-.22.08a.91.91,0,0,0-.23.15,1.3,1.3,0,0,0-.15.18l-.17.22a.85.85,0,0,0-.14.19,1.21,1.21,0,0,0-.08.25c0,.15,0,.29,0,.44a1.72,1.72,0,0,1-.09.44c0,.07,0,.14,0,.21a.73.73,0,0,1-.07.19.66.66,0,0,0-.06.2c0,.07,0,.14-.07.21l-.1.19c0,.06-.08.12-.11.18a.53.53,0,0,1-.08.17,1.92,1.92,0,0,1-.13.17,1.61,1.61,0,0,1-.24.34c-.05,0-.11.09-.15.14a.7.7,0,0,1-.13.17s-.1.07-.15.11-.1.11-.16.16a1.67,1.67,0,0,1-.35.24l-.09,0s-.05,0-.08.06a.72.72,0,0,1-.19.11,1.42,1.42,0,0,0-.18.08l-.23.11a2.25,2.25,0,0,1-.44.14,1.66,1.66,0,0,0-.22,0,1.09,1.09,0,0,1-.24.07h-.11l-.12,0-.25,0a3.1,3.1,0,0,1-1-.08,4.38,4.38,0,0,1-.71-.19,3.84,3.84,0,0,1-2.12-1.72,2.55,2.55,0,0,1-.17-.33c-.07-.12-.13-.25-.19-.38a2.81,2.81,0,0,1-.25-.9l0-.22a2,2,0,0,1,0-.24,1.7,1.7,0,0,1,0-.22v-.27c0-.34,0-.69,0-1a4.54,4.54,0,0,0-.09-.51l-.09-.51a4.76,4.76,0,0,0-.31-1c-.13-.3-.27-.59-.43-.88s-.16-.29-.25-.43a3.69,3.69,0,0,0-.29-.4l-.3-.42a2.66,2.66,0,0,0-.32-.35c-.21-.21-.43-.42-.66-.62a13.73,13.73,0,0,0-1.45-1.09c-.49-.32-1-.6-1.46-.95a7.39,7.39,0,0,1-1.19-1.11,7.62,7.62,0,0,1-.94-1.33l-.2-.37-.08-.18-.12-.2a1.74,1.74,0,0,1-.15-.4c-.05-.14-.13-.28-.19-.43a4.26,4.26,0,0,1-.25-.93,3.31,3.31,0,0,1-.12-.45c0-.17-.06-.34-.08-.51a4.4,4.4,0,0,1,0-.51,1.94,1.94,0,0,0,0-.24.5.5,0,0,1,0-.21c0-.05,0-.06,0-.11s0-.07,0-.11,0-.17,0-.25a3.59,3.59,0,0,1,0-.47.55.55,0,0,0,0-.22.67.67,0,0,1,0-.2,1,1,0,0,0,0-.1.37.37,0,0,0,0-.11,1.85,1.85,0,0,1,0-.23c0-.31.16-.61.22-.92a2.2,2.2,0,0,1,.12-.44,1.19,1.19,0,0,1,.08-.2s0-.07,0-.11,0-.07,0-.1.07-.11.09-.17,0-.15.08-.23a2.09,2.09,0,0,1,.19-.4,1.62,1.62,0,0,0,.1-.18.75.75,0,0,1,.08-.18s.05,0,.06-.07a.42.42,0,0,0,0-.1c0-.07.07-.14.11-.2l.12-.17a1.27,1.27,0,0,0,.13-.19.86.86,0,0,1,.1-.16l.07-.06a.41.41,0,0,0,.07-.11,2.42,2.42,0,0,1,.27-.36,1.06,1.06,0,0,0,.15-.15s.08-.12.13-.18l.14-.13c.06-.05.1-.12.16-.17a.71.71,0,0,1,.15-.15c.06-.06.13-.1.19-.15s.08-.11.13-.15.12-.07.17-.12.22-.2.34-.29a.76.76,0,0,1,.19-.12l.09-.05s.05-.06.08-.08a.62.62,0,0,1,.17-.11.67.67,0,0,0,.19-.12,2.14,2.14,0,0,1,.38-.23l.2-.09.1-.05s.05-.05.09-.06l.17-.07.23-.11a3.52,3.52,0,0,1,.45-.18c.31-.11.62-.21.94-.3a2,2,0,0,1,.49-.09l.12,0,.12-.05a1.79,1.79,0,0,1,.23,0l.25,0,.26,0h.5l.23,0a.89.89,0,0,1,.23,0,.83.83,0,0,0,.22,0h.26a5.25,5.25,0,0,1,1,.12l.22,0,.25,0a1.76,1.76,0,0,1,.45.12c.25.09.51.15.76.25l.71.29a9,9,0,0,1,2.45,1.68,9.57,9.57,0,0,1,1,1.13c.15.21.3.43.43.65a3.79,3.79,0,0,1,.2.34,3.85,3.85,0,0,1,.23.38c.08.14.12.3.19.44s.14.29.2.44a3.53,3.53,0,0,1,.15.46l.06.22s0,.07,0,.11a.27.27,0,0,0,.06.12c.07.14,0,.3.08.44a3.89,3.89,0,0,1,.12.49,2.72,2.72,0,0,1,.05.49c0,.08,0,.16,0,.23a.65.65,0,0,1,0,.24s0,.07,0,.1,0,.08,0,.12a2.28,2.28,0,0,1,0,.26c0,.16,0,.33,0,.49a3.91,3.91,0,0,0,0,.48,1,1,0,0,0,.15.35,1.72,1.72,0,0,0,1.1.75.58.58,0,0,0,.19,0l.26,0a1.57,1.57,0,0,0,.46-.2l.22-.11a.77.77,0,0,0,.18-.18,1.46,1.46,0,0,0,.16-.19l.09-.24.08-.24.05-.11a.21.21,0,0,0,0-.11.31.31,0,0,1,0-.19s0-.06,0-.1v-.14c0-.34,0-.68,0-1s-.07-.68-.11-1c0-.17-.05-.33-.07-.5l0-.23c0-.09,0-.18-.07-.27-.1-.33-.19-.66-.29-1,0-.15-.12-.29-.16-.44s0-.07,0-.1a.21.21,0,0,0,0-.11l-.12-.25-.45-1c-.15-.3-.32-.6-.49-.89a8,8,0,0,0-.53-.76l-.57-.69a12.38,12.38,0,0,0-2.71-2.34,13.19,13.19,0,0,0-1.71-.89,5.87,5.87,0,0,0-.9-.37l-.5-.15a4.64,4.64,0,0,0-.51-.11l-1-.23-.24-.05a1,1,0,0,0-.25,0l-.22,0a1.14,1.14,0,0,0-.26,0l-1-.05a6.9,6.9,0,0,0-1,.08c-.35,0-.69.07-1,.12l-.5.11a4,4,0,0,0-.5.1c-.07,0-.12.07-.19.09s-.15,0-.22,0l-.24.08-.25.09-.24.08c-.07,0-.11.08-.18.1a.73.73,0,0,0-.2,0l-.23.11-.46.22c-.15.07-.3.13-.44.21l-.88.52-.42.29c-.14.1-.28.2-.41.31s-.53.43-.79.66-.48.48-.71.72a.31.31,0,0,0-.07.09l-.05.07c0,.06-.11.09-.16.14L16,14c-.2.26-.39.52-.57.8L15.3,15c0,.05-.05.12-.09.18s-.09.1-.12.15a2.53,2.53,0,0,0-.12.23c-.09.15-.17.3-.25.45s0,.12-.07.18a.24.24,0,0,1-.06.09l-.06.11c-.06.16-.13.32-.2.48a.86.86,0,0,0-.07.21,1.11,1.11,0,0,1-.09.19.83.83,0,0,0-.08.22c0,.08-.05.16-.08.25s0,.16-.08.24a.86.86,0,0,0-.06.23.24.24,0,0,1,0,.16.29.29,0,0,0,0,.1s0,.08,0,.12-.07.32-.11.47a1.8,1.8,0,0,0-.06.22,1.48,1.48,0,0,1,0,.21l0,.08a.41.41,0,0,0,0,.11c0,.08,0,.17,0,.26a4,4,0,0,1-.07.48.81.81,0,0,0,0,.22.41.41,0,0,1,0,.22.36.36,0,0,0,0,.1.48.48,0,0,0,0,.12v.79c0,.08,0,.15,0,.23s0,.17,0,.25a4.36,4.36,0,0,0,.05.52l0,.25a1.18,1.18,0,0,0,0,.27c0,.07.06.14.08.21s0,.17,0,.25.08.34.12.5.09.34.13.51a2.15,2.15,0,0,0,.14.45,1.39,1.39,0,0,1,.06.19.41.41,0,0,0,0,.11s0,.08.05.12l.42,1a3.48,3.48,0,0,0,.21.48,3.34,3.34,0,0,1,.25.4l.09.2a1.48,1.48,0,0,0,.13.21c.08.13.17.25.26.38a14.17,14.17,0,0,0,1.14,1.42c.2.22.42.44.64.65a8.42,8.42,0,0,0,.72.62c.28.2.58.37.87.55l.86.56a7.74,7.74,0,0,1,1.37,1.11l.29.33c.08.11.16.24.25.35a2.9,2.9,0,0,1,.25.36l.09.2a1.36,1.36,0,0,0,.1.21,3.14,3.14,0,0,1,.31.89c0,.16,0,.31.07.47a1.49,1.49,0,0,1,0,.21s0,.08,0,.11,0,.09,0,.13a2.57,2.57,0,0,1,0,.48,3.54,3.54,0,0,0,0,.46.88.88,0,0,1,0,.23s0,.08,0,.12,0,.09,0,.13l.09.51.05.25a.93.93,0,0,0,0,.24,1.76,1.76,0,0,1,.09.2,1.52,1.52,0,0,1,0,.21.76.76,0,0,0,.08.21l.1.21c.06.15.12.29.19.44a5,5,0,0,0,.45.82l.58.81"/></g></g><path id="Fill-4" class="cls-1" d="M30.43,25.23a2.24,2.24,0,0,1,.22-.4,1,1,0,0,1,.11-.17.86.86,0,0,0,.13-.2,1.51,1.51,0,0,1,.09-.18l.06-.07a.75.75,0,0,0,.06-.13c.06-.15.13-.3.2-.45s.12-.29.17-.44a.81.81,0,0,0,.07-.22,2,2,0,0,0,0-.24l.12-.95a4.42,4.42,0,0,0-.18-1.69,6.57,6.57,0,0,0-.58-1.4c-.13-.22-.27-.44-.42-.65a3.8,3.8,0,0,0-.52-.62l-.36-.33a4.1,4.1,0,0,0-.4-.29l-.43-.28c-.14-.09-.27-.2-.42-.28a3,3,0,0,0-.45-.19l-.48-.17-.22-.08a.68.68,0,0,0-.23-.07.49.49,0,0,1-.21,0l-.09,0-.14,0a8.14,8.14,0,0,0-1-.1l-.51,0-.23,0h-.12a.17.17,0,0,1-.1,0h-.1l-.1,0-.24,0c-.17,0-.33.07-.49.12l-.45.17-.21.09a.58.58,0,0,0-.21.1.52.52,0,0,1-.15.07.94.94,0,0,0-.22.12l-.19.12a1,1,0,0,0-.22.13.81.81,0,0,1-.14.12l-.08,0-.1.09-.36.31-.09.08-.05.07c0,.06-.1.08-.14.12a3.58,3.58,0,0,0-.29.39l-.28.38a3.11,3.11,0,0,0-.22.4c-.14.29-.27.57-.39.87a2.46,2.46,0,0,0-.1.47l-.09.48c0,.07,0,.14-.05.22s0,.08,0,.12,0,.07,0,.11v.21a1.66,1.66,0,0,0,0,.22,8.85,8.85,0,0,0,.12.88,2.88,2.88,0,0,0,.55,1.49,1.67,1.67,0,0,0,.58.4l.22,0a.77.77,0,0,0,.26,0l.47-.07A1.47,1.47,0,0,0,22,24a.75.75,0,0,0,.18-.13,2.14,2.14,0,0,0,.28-.32,2,2,0,0,0,.17-.4.85.85,0,0,0,0-.23l0-.21c-.05-.28-.16-.54-.21-.82a2.4,2.4,0,0,1-.05-.8,2.93,2.93,0,0,1,.07-.41,1,1,0,0,1,.05-.22c0-.07.07-.14.09-.21a2,2,0,0,1,.45-.8,2.4,2.4,0,0,1,.6-.59,1.08,1.08,0,0,0,.18-.11.58.58,0,0,1,.15-.11.76.76,0,0,0,.16-.06l.19-.1a1.66,1.66,0,0,1,.38-.11l.09,0s0,0,.07,0H25l.12,0a2.37,2.37,0,0,1,.84,0,3.38,3.38,0,0,1,.93.21l.22.11.09.07s.08,0,.12,0a1.61,1.61,0,0,1,.34.24,3.34,3.34,0,0,1,.9,1,2.9,2.9,0,0,1,.38,1.22,5.61,5.61,0,0,1,0,.71,1.1,1.1,0,0,1,0,.18,1.72,1.72,0,0,1-.07.21,3,3,0,0,1-.14.42,1.44,1.44,0,0,1-.23.4,2.46,2.46,0,0,0-.22.39c-.08.13-.15.26-.23.38s-.18.25-.25.38-.31.54-.47.8l-.12.2a.78.78,0,0,0-.11.2.65.65,0,0,1-.09.23,6.18,6.18,0,0,0-.73,2.51,12,12,0,0,0,.39,3.28c.1.21.13.45.22.67a7.6,7.6,0,0,0,.31.73,2.27,2.27,0,0,0,.22.32,1.48,1.48,0,0,0,.39.26,1.6,1.6,0,0,0,.89.13.88.88,0,0,0,.41-.17,1.42,1.42,0,0,0,.34-.25,1.16,1.16,0,0,0,.32-.73,1.58,1.58,0,0,0-.11-.71c-.1-.28-.23-.54-.33-.82s-.15-.56-.22-.85c0-.13-.06-.27-.08-.4s0-.29,0-.43a2.69,2.69,0,0,1,0-.85,3,3,0,0,1,.11-.43,2.75,2.75,0,0,1,.11-.41,1.8,1.8,0,0,0,.08-.21,1,1,0,0,1,.09-.22c.06-.14.14-.27.21-.41s.05-.13.08-.19.1-.11.14-.17.05-.13.08-.19l.1-.2a2.25,2.25,0,0,1,.24-.36c.09-.11.08-.26.21-.34"/><path id="Fill-6" class="cls-1" d="M28.2,37.71a2,2,0,1,0,1.71-2.15,2,2,0,0,0-1.71,2.15"/></g></g></svg>